IKoutput_20to65secs_10hz.mot
version=1
nRows=45
nColumns=19
inDegrees=yes
endheader
time	/jointset/ground_pelvis/pelvis_tilt/value	/jointset/ground_pelvis/pelvis_list/value	/jointset/ground_pelvis/pelvis_rotation/value	/jointset/ground_pelvis/pelvis_tx/value	/jointset/ground_pelvis/pelvis_ty/value	/jointset/ground_pelvis/pelvis_tz/value	/jointset/hip_r/hip_flexion_r/value	/jointset/hip_r/hip_adduction_r/value	/jointset/hip_r/hip_rotation_r/value	/jointset/walker_knee_r/knee_angle_r/value	/jointset/patellofemoral_r/knee_angle_r_beta/value	/jointset/ankle_r/ankle_angle_r/value	/jointset/hip_l/hip_flexion_l/value	/jointset/hip_l/hip_adduction_l/value	/jointset/hip_l/hip_rotation_l/value	/jointset/walker_knee_l/knee_angle_l/value	/jointset/patellofemoral_l/knee_angle_l_beta/value	/jointset/ankle_l/ankle_angle_l/value
42.50000000	-3.76165657	-4.05046146	8.58757754	17.55888486	0.95292267	-0.45934388	11.43706031	5.89684290	-9.03038397	12.99202887	0.22675368	7.86345008	37.23183085	-5.14719471	3.35057730	67.19870505	1.17283865	-10.54750026
42.51000000	-3.90503820	-4.04408588	8.75143562	17.56514260	0.95336098	-0.45892177	11.04947885	5.94813950	-9.30846883	12.76075224	0.22271714	8.03429195	37.92373374	-5.00249783	2.92736845	65.76326052	1.14778542	-9.43817575
42.52000000	-4.05496887	-4.04843022	8.91533428	17.57136084	0.95370303	-0.45852109	10.66731344	6.01653344	-9.54164833	12.51772972	0.21847560	8.19819432	38.52570495	-4.89726572	2.45692374	64.10378221	1.11882206	-8.31026207
42.53000000	-4.20924381	-4.06403778	9.08896462	17.57755223	0.95395675	-0.45815305	10.28383929	6.10039583	-9.74052809	12.25830764	0.21394783	8.35537515	39.03418829	-4.82202788	1.95660500	62.22559787	1.08604156	-7.19535503
42.54000000	-4.36635794	-4.09061226	9.28159620	17.58372179	0.95412535	-0.45783775	9.89847932	6.19502846	-9.93019528	11.98565955	0.20918922	8.50464034	39.44876096	-4.76119331	1.44963614	60.13954913	1.04963314	-6.12350163
42.55000000	-4.52505892	-4.12694868	9.50139468	17.58987104	0.95420743	-0.45759861	9.51407825	6.29444615	-10.13860596	11.70778030	0.20433931	8.64609858	39.77268782	-4.69694268	0.95916318	57.86422776	1.00992129	-5.12352975
42.56000000	-4.68428742	-4.17077379	9.75248883	17.59600280	0.95419977	-0.45745709	9.13536968	6.39277472	-10.38131590	11.43653931	0.19960527	8.78765290	40.01141925	-4.61342063	0.50369057	55.42278207	0.96731003	-4.22603325
42.57000000	-4.84336775	-4.21890082	10.03265366	17.60212331	0.95410084	-0.45742889	8.76833611	6.48494064	-10.65802413	11.18642180	0.19523989	8.94248364	40.17029474	-4.49972869	0.09389779	52.83730843	0.92218500	-3.46346751
42.58000000	-5.00195989	-4.26757682	10.33349767	17.60824116	0.95391522	-0.45752260	8.41950043	6.56666623	-10.95742285	10.97270511	0.19150983	9.12144681	40.25187777	-4.35103913	-0.27053598	50.12463035	0.87483984	-2.86447445
42.59000000	-5.16004985	-4.31267924	10.64246110	17.61436433	0.95365558	-0.45774080	8.09552920	6.63400998	-11.26133136	10.81056972	0.18868004	9.33345398	40.25454781	-4.16756181	-0.60262232	47.29476827	0.82544943	-2.44579531
42.60000000	-5.31803915	-4.35020785	10.94564680	17.62049743	0.95333977	-0.45807928	7.80288836	6.68351124	-11.54944668	10.71414047	0.18699703	9.58928473	40.17397086	-3.95275355	-0.92573571	44.35269503	0.77410056	-2.20792996
42.61000000	-5.47641243	-4.37732660	11.22973386	17.62664202	0.95298588	-0.45852308	7.54682457	6.71344416	-11.80483035	10.69454558	0.18665503	9.89901923	40.00525208	-3.71167324	-1.26342476	41.30170390	0.72085072	-2.13749334
42.62000000	-5.63518881	-4.39274447	11.48230044	17.63279967	0.95260939	-0.45904757	7.32991420	6.72410805	-12.01713023	10.75798119	0.18776219	10.26457971	39.74376991	-3.44816738	-1.62281060	38.14663702	0.66578442	-2.21285455
42.63000000	-5.79355273	-4.39571538	11.69195275	17.63897656	0.95222276	-0.45962929	7.15075106	6.71597135	-12.18292977	10.90478086	0.19032433	10.67516783	39.38524469	-3.16205743	-1.98414232	34.89655379	0.60905976	-2.40689158
42.64000000	-5.94953332	-4.38506029	11.84903943	17.64518693	0.95183513	-0.46025689	7.00342461	6.68799114	-12.30408310	11.12960572	0.19424827	11.11025184	38.92591250	-2.84993076	-2.30490352	31.56639491	0.55093753	-2.68625798
42.65000000	-6.10003362	-4.35924220	11.94649246	17.65145182	0.95145067	-0.46093353	6.87861535	6.63767679	-12.38526928	11.42302373	0.19936938	11.54747648	38.36352805	-2.50893664	-2.53078629	28.17757261	0.49179142	-3.01374474
42.66000000	-6.24135974	-4.31696394	11.98090582	17.65779549	0.95106712	-0.46167186	6.76568046	6.56227255	-12.43156009	11.77438569	0.20550180	11.96956486	37.69868531	-2.13998055	-2.60261373	24.75747192	0.43209940	-3.35734948
42.67000000	-6.36960404	-4.25792669	11.95362656	17.66424524	0.95067730	-0.46248405	6.65396619	6.46081884	-12.44610376	12.17412495	0.21247856	12.36914895	36.93561097	-1.74983989	-2.45931649	21.33926338	0.37244041	-3.69947541
42.68000000	-6.48088404	-4.18362105	11.87064689	17.67083231	0.95027192	-0.46337100	6.53336049	6.33623158	-12.42958289	12.61407593	0.22015716	12.75080347	36.08359153	-1.35291096	-2.04321055	17.96418076	0.31353410	-4.03721150
42.69000000	-6.57192683	-4.09759775	11.74134879	17.67758790	0.94984087	-0.46431884	6.39511130	6.19556556	-12.38224910	13.08650124	0.22840253	13.12603519	35.15951126	-0.97082785	-1.31064811	14.68481477	0.25629837	-4.37291318
42.70000000	-6.64078037	-4.00502769	11.57746121	17.68453479	0.94937285	-0.46530482	6.23298757	6.04837618	-12.30565438	13.58362068	0.23707891	13.50558181	34.18991842	-0.62849769	-0.24605331	11.56713027	0.20188451	-4.70116931
42.71000000	-6.68716277	-3.91162216	11.39184031	17.69168076	0.94885559	-0.46630790	6.04437611	5.90397619	-12.20283851	14.09914310	0.24607647	13.89624779	33.21112983	-0.34783264	1.12471143	8.69104123	0.15168729	-4.99938122
42.72000000	-6.71213644	-3.82181666	11.19590182	17.69901913	0.94827905	-0.46732032	5.83008463	5.76804144	-12.07854435	14.63009517	0.25534333	14.29901555	32.26582789	-0.14158797	2.72635590	6.14702339	0.10728580	-5.22681855
42.73000000	-6.71728827	-3.73719748	10.99706452	17.70653573	0.94764050	-0.46835396	5.59265594	5.64066294	-11.93834418	15.17643502	0.26487876	14.70730133	31.39535217	-0.00969310	4.43909761	4.02453445	0.07024138	-5.33306540
42.74000000	-6.70406536	-3.65644958	10.79699965	17.71421802	0.94694682	-0.46943498	5.33495261	5.51742963	-11.78512581	15.73951828	0.27470642	15.10889521	30.62839224	0.05945326	6.11897622	2.39099459	0.04173073	-5.27677896
42.75000000	-6.67335943	-3.57625221	10.59008608	17.72206384	0.94621310	-0.47059279	5.05880719	5.39160238	-11.61643218	16.32010950	0.28483965	15.48689041	29.96845041	0.08295460	7.62626490	1.26582803	0.02209287	-5.05232027
42.76000000	-6.62521441	-3.49200423	10.36352852	17.73008590	0.94545968	-0.47185192	4.76378227	5.25525478	-11.42572370	16.91723754	0.29526150	15.81961603	29.38783862	0.07687097	8.85193074	0.60467514	0.01055357	-4.70904914
42.77000000	-6.55939343	-3.39875865	10.10082338	17.73830644	0.94470781	-0.47322590	4.44941730	5.10002960	-11.20552819	17.53214651	0.30599368	16.09161122	28.83778919	0.05294229	9.73282190	0.31034149	0.00541648	-4.34682155
42.78000000	-6.47695640	-3.29290722	9.78890686	17.74674199	0.94397634	-0.47471514	4.11967314	4.91866816	-10.95203478	18.17255947	0.31717100	16.30604035	28.27181550	0.01961499	10.25226305	0.26458489	0.00461788	-4.09150710
42.79000000	-6.38127292	-3.17359161	9.42613499	17.75538737	0.94328175	-0.47631245	3.78370879	4.70659281	-10.67177904	18.84854310	0.32896914	16.47392299	27.66577304	-0.01432631	10.43026480	0.35625667	0.00621785	-4.06656998
42.80000000	-6.27744976	-3.04271131	9.02411753	17.76421019	0.94263807	-0.47800808	3.45332285	4.46255262	-10.38346473	19.56586588	0.34148878	16.59331117	27.02197732	-0.03823115	10.30959520	0.49282549	0.00860143	-4.36755693
42.81000000	-6.17088420	-2.90364242	8.60107144	17.77315840	0.94205480	-0.47978929	3.14053449	4.18832721	-10.10886224	20.32513693	0.35474056	16.64821633	26.35907845	-0.04265696	9.94458560	0.60292937	0.01052310	-5.04347623
42.82000000	-6.06571535	-2.75928856	8.17368660	17.78217594	0.94153950	-0.48164343	2.85510505	3.88716430	-9.86172438	21.12387386	0.36868115	16.62147428	25.69755316	-0.02283444	9.39741583	0.64224777	0.01120934	-6.08978741
42.83000000	-5.96365538	-2.61022217	7.75392841	17.79122065	0.94110821	-0.48356616	2.60173989	3.56128364	-9.64544107	21.95720205	0.38322547	16.50014435	25.04956619	0.02232822	8.73804456	0.60222108	0.01051074	-7.44262885
42.84000000	-5.86374090	-2.45363397	7.34893709	17.80027688	0.94079734	-0.48556356	2.37883519	3.21020189	-9.45533672	22.81770743	0.39824412	16.27199694	24.41577481	0.09398430	8.03949731	0.50789060	0.00886436	-8.97093979
42.85000000	-5.76276127	-2.28388642	6.96126766	17.80935655	0.94066709	-0.48764392	2.18013475	2.83127813	-9.27997290	23.69699076	0.41359051	15.92262780	23.78669809	0.19510328	7.36809898	0.39926821	0.00696855	-10.49545947
42.86000000	-5.65616762	-2.09510403	6.59172149	17.81848531	0.94078837	-0.48980940	1.99889475	2.42205693	-9.10608115	24.58895212	0.42915817	15.43578665	23.14686566	0.32944483	6.77612191	0.30983631	0.00540766	-11.84356188
42.87000000	-5.53998972	-1.88411880	6.24368911	17.82767916	0.94121867	-0.49205757	1.83355157	1.98148282	-8.92872524	25.49347666	0.44494511	14.79481355	22.48074396	0.49980438	6.30123831	0.25631010	0.00447346	-12.89538778
42.88000000	-5.41281767	-1.65161645	5.92365405	17.83692849	0.94198291	-0.49438879	1.69179224	1.50863387	-8.75839056	26.41888962	0.46109661	13.98317089	21.77748343	0.70660625	5.96788136	0.23968362	0.00418327	-13.59051411
42.89000000	-5.27600868	-1.40169767	5.63708334	17.84620077	0.94306658	-0.49680753	1.58923255	1.00209977	-8.61739598	27.38010127	0.47787292	12.98332811	21.03261423	0.94701528	5.78354843	0.25091526	0.00437930	-13.91686229
42.90000000	-5.13239030	-1.14069812	5.38250579	17.85545345	0.94441904	-0.49931568	1.54489428	0.46133487	-8.52677738	28.39416239	0.49557162	11.77647657	20.24776469	1.21495613	5.73239200	0.27678642	0.00483083	-13.90502811
42.91000000	-4.98485315	-0.87566712	5.14683655	17.86464579	0.94596295	-0.50190527	1.57806354	-0.11215553	-8.49312363	29.47785864	0.51448569	10.34624373	19.42926351	1.50194277	5.77492513	0.30438519	0.00531252	-13.62054306
42.92000000	-4.83538291	-0.61320377	4.90488790	17.87374760	0.94760808	-0.50455285	1.70662313	-0.71440811	-8.50361912	30.64664089	0.53488479	8.68472079	18.58574322	1.79776683	5.85601216	0.32405823	0.00565588	-13.14339970
42.93000000	-4.68484635	-0.35840906	4.62351903	17.88274192	0.94926662	-0.50721670	1.94620770	-1.33918276	-8.52856883	31.91342021	0.55699426	6.79516030	17.72590798	2.09140362	5.91447324	0.33084787	0.00577438	-12.54477500
42.94000000	-4.53366243	-0.11378939	4.26883269	17.89161911	0.95086552	-0.50984011	2.31047919	-1.97867394	-8.52834984	33.28817194	0.58098820	4.69106886	16.85794294	2.37308788	5.89081975	0.32436823	0.00566129	-11.87681533
